<?xml version="1.0" encoding="utf-8"?>
<!-- Generator: Adobe Illustrator 15.0.2, SVG Export Plug-In  -->
<!DOCTYPE svg PUBLIC "-//W3C//DTD SVG 1.1//EN" "http://www.w3.org/Graphics/SVG/1.1/DTD/svg11.dtd" [
	<!ENTITY ns_flows "http://ns.adobe.com/Flows/1.0/">
]>
<svg version="1.1"
	 xmlns="http://www.w3.org/2000/svg" xmlns:xlink="http://www.w3.org/1999/xlink" xmlns:a="http://ns.adobe.com/AdobeSVGViewerExtensions/3.0/"
	 x="0px" y="0px" width="447px" height="213px" viewBox="-0.057 -0.651 447 213"
	 overflow="visible" enable-background="new -0.057 -0.651 447 213" xml:space="preserve">
<defs>
</defs>
<path d="M4.14,2.97C2.55,4.11,1.71,5.22,1.68,7.11c0.09-0.03,0.18-0.03,0.3-0.03c0.84,0,1.65,0.57,1.65,1.619
	c0,1.051-0.69,1.681-1.65,1.681C0.72,10.38,0,9.39,0,7.561C0,4.98,1.23,3.12,3.42,1.8L4.14,2.97z M9.75,2.97
	C8.16,4.11,7.32,5.22,7.29,7.11c0.09-0.03,0.18-0.03,0.27-0.03c0.87,0,1.68,0.57,1.68,1.619c0,1.051-0.72,1.681-1.68,1.681
	c-1.2,0-1.92-0.991-1.92-2.82c0-2.58,1.2-4.44,3.36-5.76L9.75,2.97z"/>
<path d="M26.37,0.75c-0.6,1.95-1.321,3.87-2.13,5.73v20.938h-1.801V10.11c-0.869,1.59-1.829,3.059-2.819,4.289
	c-0.18-0.48-0.72-1.5-1.05-1.979c2.49-3,4.679-7.56,6.03-12.149L26.37,0.75z M46.199,8.01c-0.301,12.899-0.48,16.949-1.35,18.149
	c-0.48,0.72-0.99,0.93-1.74,0.99c-0.72,0.09-1.89,0.06-3,0c-0.03-0.51-0.21-1.29-0.51-1.771c1.23,0.12,2.31,0.12,2.79,0.12
	c0.42,0.03,0.66-0.06,0.9-0.45c0.6-0.87,0.9-4.83,1.14-16.259h-2.91v0.9c0,5.789-0.57,12.779-4.83,17.849
	c-0.3-0.33-0.99-0.81-1.5-1.05c0.36-0.42,0.69-0.87,1.02-1.32c-3.75,0.45-7.47,0.9-10.319,1.23l-0.361-1.74
	c1.5-0.12,3.36-0.3,5.37-0.48v-2.67H26.31v-1.56h4.589V17.91h-4.5V9.18h4.5V7.17h-4.89V5.61h4.89V3.63
	c-1.56,0.15-3.12,0.3-4.56,0.391C26.249,3.6,26.04,3,25.83,2.61c3.569-0.33,7.919-0.84,10.439-1.5l1.11,1.47
	c-1.35,0.33-3,0.6-4.74,0.84v2.19h4.89v1.41h2.22V0.21h1.77v6.811h4.68V8.01z M27.839,12.87h3.18v-2.28h-3.18V12.87z M27.839,16.529
	h3.18v-2.37h-3.18V16.529z M35.849,10.59h-3.33v2.28h3.33V10.59z M35.849,14.16h-3.33v2.37h3.33V14.16z M39.749,8.79h-2.34V7.17
	h-4.77v2.01h4.68v8.73h-4.68v2.039h4.77v1.56h-4.77v2.49c1.47-0.12,3-0.3,4.53-0.45c2.31-4.38,2.58-9.539,2.58-13.829V8.79z"/>
<path d="M78.059,11.07c-1.319,0.45-3.06,0.9-5.129,1.29c0.87,1.92,1.89,3.99,2.7,5.55l-1.051,1.29
	c-1.469-0.24-3.779-0.54-5.669-0.78l0.18-1.68c1.5,0.21,2.94,0.36,3.9,0.45c-0.57-1.2-1.32-2.85-2.07-4.5
	c-3.84,0.54-8.67,0.57-13.32,0.3l-0.06-1.98c4.53,0.42,9,0.36,12.6-0.09c-0.45-1.021-0.87-1.95-1.17-2.67
	c-0.21-0.51-0.45-0.99-0.63-1.47c-3.03,0.27-6.78,0.3-10.5-0.06l-0.15-1.979c3.57,0.389,6.93,0.479,9.84,0.21
	c-0.15-0.361-0.3-0.721-0.45-1.02c-0.42-0.931-0.66-1.411-1.05-2.04l2.43-0.511c0.27,1.02,0.69,2.19,1.14,3.33
	c2.1-0.299,4.229-0.779,5.97-1.41l0.389,1.95c-1.559,0.479-3.539,0.93-5.609,1.26l0.51,1.23c0.27,0.63,0.72,1.65,1.259,2.88
	c2.371-0.45,4.201-0.99,5.52-1.5L78.059,11.07z M60.93,17.37c-0.39,0.93-0.72,2.25-0.72,3.03c0,2.369,1.89,3.84,6.21,3.84
	c2.34,0,5.1-0.21,7.199-0.661l-0.06,2.161c-1.859,0.33-4.739,0.54-7.049,0.54c-5.28,0-8.34-1.801-8.34-5.431
	c0-1.259,0.33-2.609,0.69-3.689L60.93,17.37z"/>
<path d="M99.209,7.2c-0.09,1.68-0.24,3.42-0.48,5.13h12.029c0,0-0.029,0.66-0.059,0.99c-0.6,8.609-1.2,11.909-2.37,13.079
	c-0.661,0.69-1.32,0.9-2.43,0.96c-1.02,0.06-3,0-5.01-0.119c-0.06-0.54-0.33-1.38-0.69-1.92c2.16,0.21,4.29,0.21,5.01,0.21
	c0.72,0,1.08-0.031,1.41-0.33c0.93-0.84,1.5-3.78,2.04-11.01h-10.23c-1.05,5.37-3.42,10.409-9.539,13.289
	c-0.301-0.479-0.901-1.199-1.41-1.59C95.819,22.11,96.719,14.19,97.079,7.2H87.75V5.28h12.179V0h2.01v5.28h12.419V7.2H99.209z"/>
<path d="M124.11,9.21c1.59-1.14,2.4-2.28,2.43-4.17c-0.09,0.03-0.18,0.03-0.27,0.03c-0.84,0-1.65-0.54-1.65-1.59
	c0-1.08,0.66-1.71,1.65-1.71c1.2,0,1.95,1.02,1.95,2.85c0,2.58-1.2,4.44-3.39,5.76L124.11,9.21z M129.69,9.21
	c1.62-1.14,2.459-2.28,2.49-4.17c-0.09,0.03-0.18,0.03-0.3,0.03c-0.87,0-1.65-0.54-1.65-1.59c0-1.08,0.66-1.71,1.65-1.71
	c1.2,0,1.95,1.02,1.95,2.85c0,2.58-1.201,4.44-3.39,5.76L129.69,9.21z"/>
<path d="M156.899,21.149c0.09-1.17,0.12-3.21,0.12-4.8c-2.85,1.5-4.92,3.12-4.92,5.16c0,2.46,2.46,2.76,5.55,2.76
	c2.28,0,5.46-0.24,8.07-0.69l-0.091,2.19c-2.279,0.27-5.519,0.48-8.069,0.48c-4.17,0-7.59-0.871-7.59-4.44
	c0-3.45,3.51-5.67,6.99-7.47c-0.24-1.32-1.35-1.98-2.76-1.98c-2.01,0-3.81,0.93-5.19,2.22c-0.839,0.81-1.71,1.89-2.699,3.06
	l-1.86-1.38c3.959-3.811,5.849-6.96,6.899-9.21h-1.409c-1.261,0-3.21-0.061-4.86-0.179v-2.04c1.59,0.21,3.659,0.299,4.979,0.299
	c0.66,0,1.32,0,2.04-0.029c0.42-1.32,0.72-2.67,0.78-3.721l2.19,0.181c-0.18,0.87-0.45,2.13-0.9,3.48c3.09-0.12,6.33-0.391,9.18-0.9
	v2.009c-2.97,0.48-6.66,0.721-9.9,0.84c-0.66,1.62-1.65,3.36-2.82,4.86c1.11-0.75,2.88-1.2,4.23-1.2c1.92,0,3.54,0.99,3.93,2.76
	c2.16-1.02,4.05-1.738,5.67-2.52c0.84-0.36,1.53-0.69,2.28-1.08l0.869,2.01c-0.689,0.21-1.679,0.602-2.459,0.9
	c-1.74,0.689-3.93,1.56-6.24,2.67c0.03,1.71,0.06,4.29,0.09,5.76H156.899z"/>
<path d="M182.58,21.54c1.47,2.28,4.2,3.33,7.829,3.48c3.331,0.12,10.29,0.03,13.83-0.18c-0.27,0.45-0.57,1.32-0.66,1.89
	c-3.3,0.12-9.779,0.18-13.109,0.06c-4.02-0.15-6.81-1.23-8.7-3.6c-1.29,1.32-2.67,2.61-4.11,3.93l-1.05-1.83
	c1.26-0.99,2.76-2.31,4.11-3.57v-7.98h-3.78v-1.89h5.64V21.54z M181.68,6.93c-0.81-1.53-2.76-3.659-4.53-5.129l1.53-1.021
	c1.8,1.409,3.78,3.51,4.65,5.01L181.68,6.93z M203.878,18.899h-19.979v-1.59h5.52v-3h-4.53v-1.56h4.53v-2.28h1.83v2.28h5.189v-2.28
	h1.89v2.28h4.59v1.56h-4.59v3h5.55V18.899z M191.069,2.73h-6.54v-1.44h8.25v4.949h-6.03v1.71c0,0.54,0.15,0.66,1.17,0.66h3.389
	c0.75,0,0.901-0.18,0.991-1.56c0.33,0.27,0.989,0.479,1.5,0.571c-0.21,1.92-0.721,2.429-2.221,2.429h-3.839
	c-2.13,0-2.67-0.42-2.67-2.101V4.8h6V2.73z M192.179,19.92c-1.529,1.47-3.929,2.939-5.909,3.93c-0.3-0.36-1.02-0.99-1.47-1.26
	c2.01-0.84,4.26-2.01,5.58-3.271L192.179,19.92z M191.25,17.31h5.189v-3h-5.189V17.31z M200.729,2.73h-6.42v-1.44h8.19v4.949h-5.94
	V7.92c0,0.569,0.181,0.689,1.23,0.689h3.75c0.78,0,0.93-0.21,1.02-1.68c0.36,0.27,0.99,0.48,1.5,0.6
	c-0.18,2.011-0.72,2.521-2.28,2.521h-4.14c-2.19,0-2.79-0.42-2.79-2.101V4.8h5.88V2.73z M201.449,23.939
	c-1.26-1.14-3.45-2.58-5.55-3.63l1.41-0.93c2.19,1.08,4.62,2.52,6.03,3.66L201.449,23.939z"/>
<path d="M223.8,15.12c-1.44,0.39-2.94,0.78-4.38,1.14v8.64c0,1.26-0.33,1.8-1.11,2.13c-0.81,0.329-2.07,0.36-4.38,0.36
	c-0.06-0.48-0.33-1.32-0.63-1.831c1.68,0.061,3.15,0.031,3.57,0.031c0.45-0.031,0.63-0.18,0.63-0.66v-8.19
	c-1.59,0.42-3.09,0.81-4.41,1.14l-0.509-1.98c1.379-0.27,3.059-0.66,4.919-1.11v-6.72h-4.56V6.24h4.56V0.091h1.92V6.24h4.17v1.83
	h-4.17v6.24l4.2-1.02L223.8,15.12z M233.069,13.649c1.17,5.43,3.599,10.05,7.559,12.06c-0.449,0.39-1.079,1.201-1.409,1.71
	c-4.29-2.429-6.841-7.469-8.131-13.77H227.1c-0.15,4.53-0.99,10.021-4.59,13.74c-0.33-0.36-1.11-1.081-1.53-1.32
	c3.81-3.96,4.17-9.63,4.17-14.1V1.801h13.8v11.849H233.069z M227.128,11.76h9.87V3.659h-9.87V11.76z"/>
<path d="M251.52,5.399c1.83-0.18,7.589-0.75,13.049-1.199c3.271-0.301,5.971-0.45,7.919-0.511l0.031,2.13
	c-1.71,0-4.319,0.031-5.819,0.48c-4.351,1.439-6.9,6.06-6.9,9.57c0,5.97,5.55,7.8,10.349,7.98l-0.778,2.22
	c-5.341-0.18-11.7-3.06-11.7-9.72c0-4.71,2.851-8.55,5.7-10.17c-2.61,0.3-11.011,1.111-14.189,1.77l-0.271-2.4
	C250.05,5.521,250.949,5.46,251.52,5.399 M270.777,13.77l-1.408,0.66c-0.66-1.41-1.561-3.03-2.46-4.26l1.38-0.601
	C268.979,10.56,270.119,12.42,270.777,13.77 M274.169,12.479l-1.41,0.69c-0.72-1.41-1.62-2.97-2.55-4.2l1.35-0.659
	C272.277,9.3,273.479,11.13,274.169,12.479"/>
<path d="M305.399,11.07c-1.32,0.45-3.062,0.9-5.13,1.29c0.869,1.92,1.89,3.99,2.699,5.55l-1.051,1.29
	c-1.469-0.24-3.778-0.54-5.67-0.78l0.182-1.68c1.5,0.21,2.939,0.36,3.899,0.45c-0.571-1.2-1.321-2.85-2.071-4.5
	c-3.84,0.54-8.669,0.57-13.318,0.3l-0.061-1.98c4.53,0.42,9,0.36,12.601-0.09c-0.45-1.021-0.87-1.95-1.17-2.67
	c-0.21-0.51-0.45-0.99-0.63-1.47c-3.03,0.27-6.78,0.3-10.5-0.06l-0.15-1.979c3.57,0.389,6.93,0.479,9.84,0.21
	c-0.149-0.361-0.3-0.721-0.451-1.02c-0.42-0.931-0.658-1.411-1.049-2.04l2.43-0.511c0.271,1.02,0.69,2.19,1.141,3.33
	c2.1-0.299,4.229-0.779,5.97-1.41l0.39,1.95c-1.56,0.479-3.541,0.93-5.609,1.26l0.51,1.23c0.27,0.63,0.719,1.65,1.259,2.88
	c2.371-0.45,4.201-0.99,5.521-1.5L305.399,11.07z M288.27,17.37c-0.391,0.93-0.721,2.25-0.721,3.03c0,2.369,1.891,3.84,6.211,3.84
	c2.34,0,5.1-0.21,7.198-0.661l-0.059,2.161c-1.86,0.33-4.74,0.54-7.05,0.54c-5.28,0-8.34-1.801-8.34-5.431
	c0-1.259,0.329-2.609,0.69-3.689L288.27,17.37z"/>
<path d="M333.689,4.29c-0.51,0.36-1.141,0.78-1.561,1.11c-1.439,1.08-5.579,4.77-7.949,6.75c1.41-0.51,2.85-0.66,4.26-0.66
	c4.92,0,8.429,2.94,8.429,6.9c0,4.829-4.049,7.829-10.169,7.829c-4.02,0-6.39-1.77-6.39-4.14c0-1.95,1.77-3.78,4.47-3.78
	c3.69,0,5.67,2.55,6.06,5.31c2.46-0.93,3.9-2.7,3.9-5.219c0-2.972-2.97-5.161-6.781-5.161c-4.948,0-7.618,2.04-11.488,5.911
	l-1.56-1.621c2.52-2.069,6.359-5.311,8.1-6.75c1.649-1.379,5.43-4.589,6.96-5.909c-1.59,0.06-7.771,0.36-9.3,0.42
	c-0.66,0.06-1.29,0.09-1.921,0.18l-0.06-2.25c0.63,0.09,1.44,0.12,2.011,0.12c1.529,0,8.668-0.24,10.229-0.39
	c0.81-0.09,1.199-0.15,1.5-0.24L333.689,4.29z M328.89,24.119c-0.3-2.43-1.771-4.11-4.141-4.11c-1.409,0-2.46,0.81-2.46,1.92
	c0,1.5,1.801,2.37,4.11,2.37C327.3,24.299,328.109,24.239,328.89,24.119"/>
<path d="M358.17,18.689c-0.811-0.9-2.611-2.67-3.991-3.93v12.63h-1.92v-11.91c-1.559,1.56-3.179,2.91-4.769,3.93
	c-0.24-0.51-0.75-1.41-1.08-1.77c3.63-2.13,7.5-6.029,9.569-10.11h-8.551V5.7h4.83V0.091h1.92V5.7H357l0.389-0.09l1.111,0.75
	c-0.96,2.31-2.34,4.56-3.96,6.569c1.349,1.08,4.079,3.45,4.859,4.14L358.17,18.689z M374.609,24.569v1.95h-16.801v-1.95h7.711V11.85
	h-6.54V9.93h6.54V0.301h1.979V9.93h6.509v1.92h-6.509v12.72H374.609z"/>
<path d="M397.409,0.12c3.15,4.44,8.46,8.4,13.2,10.41c-0.45,0.45-0.96,1.2-1.29,1.74c-4.651-2.25-9.96-6.3-12.78-10.23
	c-2.43,3.63-7.379,7.8-12.449,10.38c-0.24-0.48-0.779-1.2-1.2-1.59c5.16-2.52,10.17-6.839,12.51-10.71H397.409z M384.419,15.09
	h24.69v1.86h-14.22c-1.08,2.31-2.431,5.04-3.66,7.2c3.84-0.12,8.28-0.301,12.66-0.479c-1.262-1.47-2.73-3-4.142-4.23l1.682-0.93
	c2.76,2.4,5.729,5.64,7.109,7.86l-1.77,1.109c-0.36-0.6-0.87-1.29-1.44-2.04c-7.41,0.361-15.239,0.69-20.37,0.87l-0.269-1.98
	c1.29-0.029,2.76-0.06,4.349-0.12c1.23-2.13,2.581-5.009,3.45-7.259h-8.07V15.09z M403.739,11.22H389.46V9.39h14.279V11.22z"/>
<path d="M421.74,15.03c1.62-1.62,4.17-5.07,5.88-7.17c1.649-1.95,3.18-2.25,5.099-0.27c1.681,1.74,4.051,4.71,5.971,6.75
	c1.77,1.98,4.77,5.19,7.409,7.529l-1.649,1.92c-2.28-2.159-5.07-5.189-7.109-7.529c-1.951-2.16-4.23-5.07-5.611-6.57
	c-1.349-1.38-1.858-1.2-2.88,0.09c-1.438,1.8-3.96,5.13-5.488,6.99c-0.601,0.75-1.262,1.59-1.71,2.19l-1.98-2.04
	C420.36,16.41,420.96,15.81,421.74,15.03"/>
<path fill="#FF2500" d="M343.33,159.168h-58.543V103.98h58.543V159.168z M295.249,148.688h37.619V114.46h-37.619V148.688z"/>
<path fill="#FF2500" d="M250.078,159.168h-58.543V103.98h58.543V159.168z M201.998,148.688h37.619V114.46h-37.619V148.688z"/>
<path fill="#FF2500" d="M156.827,159.168H98.284V103.98h58.543V159.168z M108.748,148.688h37.619V114.46h-37.619V148.688z"/>
<rect x="259.279" y="137.404" fill="#FF2500" width="16.307" height="10.759"/>
<rect x="259.279" y="114.982" fill="#FF2500" width="16.307" height="10.759"/>
<path d="M289.461,211.452c-4.981,0-8.568-2.269-9.847-6.226c-0.468-1.536-0.671-3.065-0.671-5.117c0-2.084,0.203-3.627,0.674-5.164
	c1.275-3.952,4.862-6.225,9.844-6.225c4.938,0,8.529,2.272,9.851,6.231c0.468,1.539,0.671,3.082,0.671,5.157
	c0,2.041-0.203,3.572-0.674,5.12C297.99,209.181,294.399,211.452,289.461,211.452 M289.461,194.4c-1.5,0-2.553,0.722-3.039,2.082
	c-0.256,0.92-0.336,1.798-0.336,3.627c0,1.817,0.077,2.648,0.327,3.556c0.495,1.387,1.548,2.106,3.048,2.106
	c1.502,0,2.556-0.72,3.039-2.084c0.262-0.924,0.338-1.755,0.338-3.578c0-1.835-0.079-2.709-0.328-3.604
	C292.017,195.122,290.963,194.4,289.461,194.4 M103.698,211.452c-3.338,0-6.907-1.721-6.907-6.543c0-4.448,3.335-7.002,9.148-7.002
	h3.519c0.358,0,0.588-0.229,0.588-0.588v-0.594c0-1.955-1.203-2.645-4.609-2.645c-1.912,0-3.775,0.498-4.982,1.337l-2.515-4.237
	c-0.09-0.216-0.016-0.273,0.058-0.333c2.008-1.367,5.013-2.127,8.443-2.127c7.34,0,10.201,2.244,10.201,8.005v14.034l-6.451,0.145
	l-0.145-1.422v-0.314h-0.314C108.196,210.72,106.259,211.452,103.698,211.452 M106.761,201.944c-2.977,0-3.421,1.516-3.421,2.417
	c0,0.834,0.379,2.232,2.919,2.232c2.55,0,3.787-0.88,3.787-2.691v-1.37c0-0.356-0.23-0.588-0.588-0.588H106.761z M223.266,211.179
	c-5.33,0-7.408-2.105-7.408-7.504v-19.607h7.048v18.832c0,2.072,1.188,2.506,2.189,2.506h0.961l0.144,5.629l-0.144,0.145H223.266z
	 M208.861,211.179c-5.329,0-7.408-2.105-7.408-7.504v-19.607h7.051v18.832c0,2.072,1.189,2.506,2.189,2.506h0.958l0.145,5.629
	l-0.145,0.145H208.861z M130.128,211.179c-5.595,0-7.778-2.271-7.778-8.098v-7.026h-2.143v-4.668h2.137l0.006-7.319h6.959v4.613
	l0.04,2.706h4.317v4.668h-4.357v6.706c0,1.902,0.665,2.645,2.371,2.645h1.006l0.142,5.629l-0.142,0.145H130.128z M337.881,210.904
	c-0.205,0-0.311-0.073-0.396-0.271l-4.578-9.062l-1.952,2.603l-0.062,6.586l-6.86,0.145l-0.142-26.837h7.002v13.086l5.775-7.55
	c0.22-0.252,0.367-0.335,0.619-0.335h6.993l-6.733,7.691l7.55,13.944H337.881z M304.931,210.904l-0.143-21.491l6.909-0.145
	l0.143,2.109v0.313h0.502l0.135-0.166c0.967-1.808,2.913-2.805,5.48-2.805c1.167,0,2.239,0.298,2.867,0.8l-2.473,6.68
	c-1.186-0.733-2.171-1.054-3.107-1.054c-0.175,0-0.354,0.013-0.525,0.034c-1.307,0.102-2.879,0.908-2.879,4.196v11.383l-0.143,0.145
	H304.931z M264.779,210.904c-0.169,0-0.234-0.034-0.292-0.23l-4.954-17.597h-0.478l-0.157,0.228l-4.936,17.369
	c-0.059,0.196-0.123,0.23-0.293,0.23h-5.711c-0.17,0-0.236-0.036-0.296-0.23l-7.454-26.606h7.603l3.322,14.94h0.495l0.151-0.234
	l3.938-14.706h7.131l4.112,14.94h0.496l0.143-0.247l3.155-14.693h7.491l-7.417,26.609c-0.047,0.16-0.09,0.228-0.339,0.228H264.779z
	 M188.614,210.904l-0.139-18.219h7.048v18.074l-0.142,0.145H188.614z M171.778,210.904c-0.173,0-0.237-0.034-0.296-0.23
	l-4.951-17.597h-0.56l-0.074,0.228l-4.936,17.369c-0.058,0.196-0.123,0.23-0.292,0.23h-5.715c-0.166,0-0.234-0.036-0.293-0.23
	l-7.454-26.606h7.602l3.322,14.94h0.496l0.151-0.234l3.938-14.706h7.131l4.114,14.94h0.495l0.142-0.247l3.156-14.693h7.491
	l-7.42,26.606c-0.043,0.163-0.086,0.23-0.336,0.23H171.778z M188.472,184.067h7.051v5.396h-7.051V184.067z"/>
</svg>
