<?xml version="1.0" encoding="utf-8"?>
<!-- Generator: Adobe Illustrator 15.0.2, SVG Export Plug-In  -->
<!DOCTYPE svg [
	<!ENTITY ns_flows "http://ns.adobe.com/Flows/1.0/">
]>
<svg version="1.2" baseProfile="tiny"
	 xmlns="http://www.w3.org/2000/svg" xmlns:xlink="http://www.w3.org/1999/xlink" xmlns:a="http://ns.adobe.com/AdobeSVGViewerExtensions/3.0/"
	 x="0px" y="0px" width="250px" height="109px" viewBox="-0.025 -0.754 250 109" overflow="visible" xml:space="preserve">
<defs>
</defs>
<rect x="163.591" y="11.059" fill="#FF2500" width="16.39" height="10.812"/>
<path fill="#FF2500" d="M247.795,55.469h-58.84V0h58.84V55.469L247.795,55.469z M199.47,44.936h37.812V10.533H199.47V44.936z"/>
<path fill="#FF2500" d="M154.068,55.469H95.226V0h58.842V55.469z M105.742,44.936h37.81V10.533h-37.81V44.936z"/>
<path fill="#FF2500" d="M60.342,55.469H1.5V0h58.841L60.342,55.469L60.342,55.469z M12.017,44.936h37.81V10.533h-37.81V44.936z"/>
<rect x="163.316" y="33.596" fill="#FF2500" width="16.39" height="10.812"/>
<path d="M193.653,108.021c-5.008,0-8.613-2.281-9.898-6.258c-0.469-1.545-0.674-3.082-0.674-5.146c0-2.097,0.205-3.646,0.679-5.188
	c1.28-3.975,4.888-6.26,9.896-6.26c4.965,0,8.571,2.285,9.898,6.266c0.471,1.549,0.676,3.099,0.676,5.185
	c0,2.052-0.205,3.591-0.679,5.146C202.225,105.737,198.616,108.021,193.653,108.021 M193.653,90.883
	c-1.508,0-2.566,0.725-3.055,2.092c-0.258,0.926-0.339,1.809-0.339,3.646c0,1.826,0.077,2.661,0.327,3.574
	c0.5,1.394,1.559,2.117,3.063,2.117c1.511,0,2.569-0.726,3.056-2.097c0.264-0.93,0.34-1.765,0.34-3.597
	c0-1.846-0.08-2.725-0.33-3.624C196.222,91.605,195.163,90.883,193.653,90.883 M6.942,108.021c-3.355,0-6.942-1.73-6.942-6.577
	c0-4.472,3.352-7.037,9.194-7.037h3.538c0.359,0,0.591-0.231,0.591-0.591v-0.598c0-1.967-1.21-2.658-4.633-2.658
	c-1.922,0-3.794,0.502-5.007,1.343l-2.529-4.259c-0.089-0.217-0.015-0.274,0.059-0.334c2.018-1.373,5.038-2.141,8.486-2.141
	c7.378,0,10.253,2.258,10.253,8.049v14.104l-6.484,0.146l-0.145-1.431v-0.315h-0.316C11.463,107.284,9.516,108.021,6.942,108.021
	 M10.02,98.465c-2.993,0-3.438,1.522-3.438,2.43c0,0.838,0.38,2.242,2.933,2.242c2.563,0,3.807-0.885,3.807-2.703v-1.377
	c0-0.358-0.232-0.592-0.591-0.592H10.02z M127.12,107.745c-5.356,0-7.447-2.116-7.447-7.542V80.496h7.084v18.928
	c0,2.082,1.194,2.521,2.2,2.521h0.965l0.146,5.656l-0.146,0.145L127.12,107.745L127.12,107.745z M112.642,107.745
	c-5.356,0-7.446-2.116-7.446-7.542V80.496h7.087v18.928c0,2.082,1.193,2.521,2.2,2.521h0.962l0.146,5.656l-0.146,0.145
	L112.642,107.745L112.642,107.745z M33.507,107.745c-5.624,0-7.818-2.284-7.818-8.14v-7.062h-2.154v-4.691h2.148l0.006-7.355h6.994
	v4.637l0.041,2.721h4.338v4.691h-4.379v6.739c0,1.913,0.669,2.659,2.383,2.659h1.012l0.143,5.656l-0.143,0.146H33.507
	L33.507,107.745z M242.321,107.471c-0.209,0-0.312-0.074-0.4-0.271l-4.602-9.108l-1.963,2.615l-0.062,6.619l-6.895,0.146
	l-0.145-26.976h7.039v13.151l5.806-7.588c0.22-0.254,0.369-0.338,0.622-0.338h7.027l-6.77,7.73l7.589,14.018H242.321
	L242.321,107.471z M209.2,107.471l-0.142-21.602L216,85.723l0.144,2.121v0.314h0.505l0.137-0.167c0.973-1.815,2.928-2.82,5.508-2.82
	c1.175,0,2.25,0.302,2.883,0.806l-2.484,6.713c-1.191-0.735-2.183-1.06-3.121-1.06c-0.178,0-0.357,0.013-0.529,0.035
	c-1.312,0.103-2.896,0.912-2.896,4.217v11.441l-0.144,0.146H209.2V107.471z M168.845,107.471c-0.17,0-0.233-0.033-0.294-0.23
	l-4.979-17.688h-0.479l-0.157,0.229l-4.961,17.457c-0.061,0.197-0.124,0.232-0.295,0.232h-5.74c-0.17,0-0.238-0.037-0.297-0.232
	l-7.492-26.742h7.641l3.341,15.016h0.497l0.152-0.232l3.957-14.781h7.168l4.135,15.018h0.498l0.145-0.248l3.172-14.77h7.528
	l-7.455,26.745c-0.048,0.161-0.091,0.229-0.343,0.229h-5.741V107.471z M92.29,107.471l-0.139-18.312h7.083v18.166l-0.142,0.146
	H92.29z M75.369,107.471c-0.173,0-0.238-0.033-0.297-0.23l-4.977-17.688h-0.563l-0.074,0.229l-4.961,17.458
	c-0.059,0.196-0.124,0.231-0.294,0.231h-5.744c-0.167,0-0.235-0.037-0.294-0.231l-7.492-26.742h7.641l3.339,15.017h0.498
	l0.152-0.233l3.958-14.781h7.167l4.135,15.017h0.498l0.143-0.248l3.171-14.77h7.529l-7.458,26.742
	c-0.043,0.164-0.087,0.232-0.337,0.232h-5.74V107.471z M92.148,80.496h7.087v5.422h-7.087V80.496z"/>
</svg>
